<svg id="facebook-box-fill" xmlns="http://www.w3.org/2000/svg" width="40" height="40" viewBox="0 0 40 40">
  <path id="Path_205" data-name="Path 205" d="M0,0H40V40H0Z" fill="none"/>
  <path id="Path_206" data-name="Path 206" d="M26.426,37V23.842h4.407l.659-5.115H26.426V15.463c0-1.481.412-2.491,2.535-2.491H31.67V8.4a36.249,36.249,0,0,0-3.948-.2c-3.9,0-6.577,2.384-6.577,6.762v3.77H16.728v5.115h4.416V37H4.889A1.889,1.889,0,0,1,3,35.111V4.889A1.889,1.889,0,0,1,4.889,3H35.111A1.889,1.889,0,0,1,37,4.889V35.111A1.889,1.889,0,0,1,35.111,37Z" transform="translate(0 0)" fill="#3f334d"/>
</svg>
