<svg xmlns="http://www.w3.org/2000/svg" width="33.297" height="26.594" viewBox="0 0 33.297 26.594">
  <path id="Path_202" data-name="Path 202" d="M34.536,8.152c.761,2.962.761,9.145.761,9.145s0,6.183-.761,9.145A4.676,4.676,0,0,1,31.31,29.8c-2.845.791-12.661.791-12.661.791s-9.811,0-12.661-.791a4.675,4.675,0,0,1-3.226-3.361C2,23.48,2,17.3,2,17.3s0-6.183.761-9.145A4.676,4.676,0,0,1,5.987,4.791C8.838,4,18.649,4,18.649,4s9.816,0,12.661.791A4.675,4.675,0,0,1,34.536,8.152ZM15.319,23.115,25.308,17.3,15.319,11.48Z" transform="translate(-2 -4)" fill="#3f334d"/>
</svg>
